<?xml version="1.0" encoding="UTF-8"?>
<svg version="1.1" xmlns="http://www.w3.org/2000/svg" width="186" height="112">
<path d="M0 0 C0.99 0.33 1.98 0.66 3 1 C3 1.66 3 2.32 3 3 C3.66 3 4.32 3 5 3 C6.45402342 4.6376272 7.83848678 6.33734196 9.1875 8.0625 C12.45876353 12.16079795 15.79096311 15.95338269 19.5859375 19.56640625 C21 21 21 21 22.5 23.375 C24.88754556 25.96150769 27.62581114 25.74534424 31 26 C31.20625 25.21625 31.4125 24.4325 31.625 23.625 C33.15726058 19.58540392 35.20386493 16.21065967 37.46875 12.546875 C39.52781641 9.12210128 41.26705629 5.59919078 43 2 C43.66 2.33 44.32 2.66 45 3 C44.78794922 3.65597168 44.57589844 4.31194336 44.35742188 4.98779297 C43.40194793 7.94923722 42.45092126 10.91209091 41.5 13.875 C41.16613281 14.90753906 40.83226562 15.94007812 40.48828125 17.00390625 C40.01455078 18.48310547 40.01455078 18.48310547 39.53125 19.9921875 C39.23798828 20.90339355 38.94472656 21.81459961 38.64257812 22.75341797 C37.9083343 24.9310363 37.9083343 24.9310363 38 27 C38.80766312 27.11053207 39.61532623 27.22106415 40.44746399 27.33494568 C48.05517457 28.37661183 55.66249977 29.42103041 63.26940632 30.46855068 C67.18029229 31.00700582 71.09131901 31.54439171 75.00268555 32.0793457 C78.77665142 32.59554743 82.5502235 33.11454247 86.32353783 33.6354847 C87.76391081 33.83383995 89.20442333 34.03118463 90.64507484 34.22750664 C92.66129111 34.50243766 94.67697279 34.78128056 96.69262695 35.06030273 C97.84068314 35.21796616 98.98873932 35.37562958 100.17158508 35.53807068 C103 36 103 36 106 37 C106.5722916 48.96920973 104.88556212 60.816214 103.5625 72.6875 C103.32949133 74.82089953 103.09706499 76.95436275 102.86523438 79.08789062 C102.25096608 84.72610083 101.62747683 90.36324639 101 96 C100.8084853 97.72371119 100.61699589 99.44742518 100.42553711 101.17114258 C100.28510986 102.43466553 100.14468262 103.69818848 100 105 C90.00287151 106.3553849 80.00291572 107.6880673 70 109 C68.17782959 109.23952393 68.17782959 109.23952393 66.31884766 109.48388672 C63.00532202 109.91510858 59.69056133 110.33475431 56.375 110.75 C55.40119385 110.87737549 54.4273877 111.00475098 53.42407227 111.13598633 C33.74583286 113.55154311 33.74583286 113.55154311 25 108.6875 C24.37222656 108.39810547 23.74445312 108.10871094 23.09765625 107.81054688 C18.13493083 105.16131185 16.71535997 101.89292126 15.07275391 96.65454102 C14.71874512 95.44854248 14.36473633 94.24254395 14 93 C13.49081219 91.38557863 12.97797515 89.77230576 12.46240234 88.15991211 C10.97091928 83.47439594 9.5223131 78.77688215 8.08911133 74.07324219 C7.48426529 72.09541367 6.8741709 70.11918311 6.2590332 68.14453125 C5.36326216 65.26894714 4.48267023 62.38910778 3.60546875 59.5078125 C3.19001045 58.18742477 3.19001045 58.18742477 2.76615906 56.84036255 C0.3957544 48.93682687 0.3957544 48.93682687 2 45 C3.41455078 43.2265625 3.41455078 43.2265625 5.1953125 41.625 C5.82824219 41.03203125 6.46117187 40.4390625 7.11328125 39.828125 C8.45871164 38.60548146 9.80770356 37.38674613 11.16015625 36.171875 C11.79050781 35.57890625 12.42085937 34.9859375 13.0703125 34.375 C13.65570801 33.84648438 14.24110352 33.31796875 14.84423828 32.7734375 C16.2439168 31.01189362 16.2439168 31.01189362 15.84667969 28.56835938 C14.96952377 25.90755193 13.90490124 23.87923464 12.3828125 21.53125 C11.59583984 20.30341797 11.59583984 20.30341797 10.79296875 19.05078125 C9.96732422 17.78814453 9.96732422 17.78814453 9.125 16.5 C8.04390741 14.82315092 6.96316778 13.14607421 5.8828125 11.46875 C5.37911133 10.68886719 4.87541016 9.90898437 4.35644531 9.10546875 C0 2.34341253 0 2.34341253 0 0 Z M28 37 C30.15056401 50.70292647 32.55837018 64.3549598 35.15744019 77.97937012 C35.46962684 79.62064749 35.77880239 81.26250041 36.08499146 82.90490723 C36.51932335 85.22872793 36.96506751 87.55006765 37.4140625 89.87109375 C37.54418228 90.57731369 37.67430206 91.28353363 37.80836487 92.01115417 C38.13968958 93.68847321 38.5614014 95.3474848 39 97 C41.58136187 98.29068093 43.04159944 97.94407493 45.90869141 97.65454102 C46.92959869 97.55436172 47.95050598 97.45418243 49.00234985 97.35096741 C50.10759003 97.23643723 51.2128302 97.12190704 52.3515625 97.00390625 C53.4807309 96.89151108 54.60989929 96.77911591 55.77328491 96.66331482 C59.39110387 96.30191435 63.00803064 95.93229749 66.625 95.5625 C69.07286243 95.316517 71.52077852 95.07106731 73.96875 94.82617188 C79.97980369 94.22364237 85.99014449 93.61435923 92 93 C93.29926139 86.77166381 94.42956848 80.55766351 95.2890625 74.25390625 C95.45128799 73.08721657 95.45128799 73.08721657 95.61679077 71.8969574 C95.84167478 70.27468485 96.06510602 68.65221028 96.28710938 67.02954102 C96.62763907 64.54323135 96.97365154 62.05772709 97.3203125 59.57226562 C97.53938377 57.98702353 97.75814515 56.40173857 97.9765625 54.81640625 C98.07965729 54.0758046 98.18275208 53.33520294 98.28897095 52.57215881 C98.68158752 49.6867289 99 46.91610265 99 44 C87.28367657 41.90875015 75.45197616 40.85685776 63.61425781 39.71289062 C60.11209349 39.37375017 56.61072907 39.02708289 53.109375 38.6796875 C50.86723127 38.46048937 48.62504517 38.24172405 46.3828125 38.0234375 C45.34416046 37.92034271 44.30550842 37.81724792 43.23538208 37.71102905 C38.12945939 37.2223961 33.12922003 36.88234498 28 37 Z " fill="#AE2727" transform="translate(40,0)"/>
<path d="M0 0 C1.90543891 2.05201113 2.46524074 2.95421293 2.625 5.75 C1.11148649 11.26351351 1.11148649 11.26351351 -0.375 12.75 C-2.025 12.75 -3.675 12.75 -5.375 12.75 C-4.715 9.45 -4.055 6.15 -3.375 2.75 C-8.11608346 4.25476864 -8.11608346 4.25476864 -11.5625 7.5625 C-11.21409251 11.62725403 -8.42203393 14.59421617 -5.7578125 17.53515625 C-3.89480413 20.51912729 -3.97575635 22.69237378 -4 26.1875 C-3.99226563 27.29996094 -3.98453125 28.41242188 -3.9765625 29.55859375 C-4.41252578 33.05057411 -5.31146797 34.93102259 -7.375 37.75 C-10.58028701 40.07106991 -13.49659743 40.30405751 -17.375 39.75 C-20.81514777 37.20728208 -22.20591321 35.82792831 -22.875 31.5625 C-22.71 30.634375 -22.545 29.70625 -22.375 28.75 C-19.375 26.75 -19.375 26.75 -15.375 26.75 C-15.375 29.06 -15.375 31.37 -15.375 33.75 C-14.055 33.75 -12.735 33.75 -11.375 33.75 C-9.29826921 30.63490382 -9.0205314 29.51304114 -9.6171875 25.91015625 C-10.97913727 22.02789736 -13.4867858 18.81233316 -15.87890625 15.49609375 C-17.63915592 12.26513939 -17.78591247 10.37890169 -17.375 6.75 C-15.74064595 3.71477105 -14.319447 1.46647703 -11.5625 -0.625 C-7.45587348 -1.79832186 -3.82636081 -2.01387411 0 0 Z " fill="#AE2D2B" transform="translate(115.375,48.25)"/>
</svg>
